<?xml version="1.0" encoding="UTF-8"?>
<svg id="Capa_1" xmlns="http://www.w3.org/2000/svg" version="1.1" viewBox="0 0 2160 2160">
  <!-- Generator: Adobe Illustrator 29.5.1, SVG Export Plug-In . SVG Version: 2.1.0 Build 141)  -->
  <defs>
    <style>
      .st0, .st1, .st2, .st3, .st4 {
        fill: #023c2c;
      }

      .st1 {
        font-size: 45.9px;
        letter-spacing: 0em;
      }

      .st1, .st2, .st3, .st4 {
        font-family: Inter-Medium, Inter;
        font-weight: 500;
      }

      .st2 {
        font-size: 37.7px;
        letter-spacing: 0em;
      }

      .st3 {
        font-size: 48.2px;
        letter-spacing: 0em;
      }

      .st4 {
        font-size: 40.4px;
        letter-spacing: 0em;
      }
    </style>
  </defs>
  <g>
    <g>
      <path class="st0" d="M-3959.7-982.2h-42.2l94.8-242h45.9l94.8,242h-42.2l-74.4-198.1h-2.1l-74.6,198.1Z"/>
      <path class="st0" d="M-3691.6-978.6c-14.7,0-27.7-3.8-39.2-11.3-11.5-7.5-20.4-18.3-26.9-32.3-6.5-14-9.7-30.8-9.7-50.4s3.3-36.4,9.9-50.3c6.6-13.9,15.6-24.6,27.1-32,11.5-7.4,24.5-11.1,39.1-11.1s20.3,1.9,27.2,5.6c6.9,3.7,12.3,8.1,16.1,13.1,3.8,5,6.8,9.3,8.9,13.1h2.1v-89.9h35.3v242h-34.5v-28.2h-3c-2.1,3.9-5.2,8.3-9.2,13.2-4,5-9.4,9.3-16.4,13-6.9,3.7-15.9,5.6-26.9,5.6ZM-3683.8-1008.7c10.2,0,18.8-2.7,25.8-8.1,7-5.4,12.4-12.9,16.1-22.5,3.7-9.6,5.5-20.8,5.5-33.6s-1.8-23.6-5.4-33.1c-3.6-9.5-8.9-16.8-16-22.1-7-5.3-15.7-7.9-26-7.9s-19.5,2.8-26.6,8.3c-7.1,5.5-12.4,13-16,22.6-3.6,9.5-5.4,20.3-5.4,32.3s1.8,23,5.4,32.7c3.6,9.7,9,17.4,16.1,23,7.1,5.6,15.9,8.4,26.4,8.4Z"/>
      <path class="st0" d="M-3497.2-978.5c-17.6,0-32.7-4-45.3-12-12.6-8-22.4-19-29.1-33.1-6.8-14.1-10.2-30.3-10.2-48.5s3.5-34.7,10.4-48.9c6.9-14.1,16.7-25.2,29.3-33.1,12.6-8,27.5-11.9,44.6-11.9s26.1,2.5,36.9,7.6c10.8,5.1,19.5,12.2,26.2,21.3,6.7,9.1,10.6,19.8,11.9,32h-34.4c-1.9-8.5-6.2-15.8-12.9-22-6.7-6.1-15.7-9.2-27-9.2s-18.5,2.6-25.8,7.7c-7.4,5.2-13.1,12.5-17.2,22-4.1,9.5-6.1,20.7-6.1,33.6s2,24.7,6,34.3c4,9.6,9.7,17.1,17.1,22.3,7.4,5.3,16.1,7.9,26.1,7.9s12.8-1.2,18.3-3.7c5.5-2.5,10.1-6,13.8-10.7,3.7-4.6,6.4-10.2,7.9-16.8h34.4c-1.3,11.7-5.1,22.2-11.5,31.4-6.4,9.2-14.9,16.5-25.6,21.7-10.7,5.3-23.2,7.9-37.5,7.9Z"/>
      <path class="st0" d="M-3328.8-978.5c-17.9,0-33.3-3.8-46.1-11.5-12.9-7.7-22.8-18.5-29.8-32.5-7-14-10.5-30.4-10.5-49.2s3.5-35,10.5-49.2c7-14.2,16.7-25.2,29.3-33.2,12.6-8,27.3-11.9,44.1-11.9s20.2,1.7,29.8,5.1c9.6,3.4,18.2,8.7,25.9,16,7.6,7.2,13.7,16.6,18.1,28.2,4.4,11.5,6.6,25.5,6.6,42v12.5h-144.3v-26.5h109.7c0-9.3-1.9-17.5-5.7-24.8-3.8-7.2-9.1-12.9-15.9-17.1-6.8-4.2-14.8-6.3-23.9-6.3s-18.6,2.4-25.9,7.3c-7.4,4.8-13,11.1-17,18.9-4,7.8-6,16.2-6,25.2v20.7c0,12.1,2.1,22.5,6.4,31,4.3,8.5,10.3,15,18,19.4,7.7,4.5,16.7,6.7,27.1,6.7s12.8-1,18.3-2.9c5.5-1.9,10.3-4.8,14.3-8.7,4-3.9,7.1-8.6,9.2-14.3l33.4,6c-2.7,9.9-7.5,18.5-14.4,25.8-6.9,7.4-15.5,13.1-25.9,17.1-10.4,4.1-22.2,6.1-35.4,6.1Z"/>
      <path class="st0" d="M-3198.5-1089.9v107.8h-35.3v-181.5h33.9v29.5h2.2c4.2-9.6,10.7-17.3,19.7-23.2,8.9-5.8,20.2-8.7,33.9-8.7s23.2,2.6,32.5,7.7c9.3,5.2,16.5,12.8,21.6,23,5.1,10.2,7.7,22.7,7.7,37.7v115.5h-35.3v-111.2c0-13.2-3.4-23.5-10.3-30.9-6.9-7.4-16.3-11.2-28.2-11.2s-15.5,1.8-21.8,5.3c-6.3,3.5-11.3,8.7-15,15.5-3.7,6.8-5.5,15-5.5,24.6Z"/>
      <path class="st0" d="M-2989.4-978.6c-14.7,0-27.7-3.8-39.2-11.3-11.5-7.5-20.4-18.3-26.9-32.3-6.5-14-9.7-30.8-9.7-50.4s3.3-36.4,9.9-50.3c6.6-13.9,15.6-24.6,27.1-32,11.5-7.4,24.5-11.1,39.1-11.1s20.3,1.9,27.2,5.6c6.9,3.7,12.3,8.1,16.1,13.1,3.8,5,6.8,9.3,8.9,13.1h2.1v-89.9h35.3v242h-34.5v-28.2h-3c-2.1,3.9-5.2,8.3-9.2,13.2-4,5-9.4,9.3-16.4,13-6.9,3.7-15.9,5.6-26.9,5.6ZM-2981.6-1008.7c10.2,0,18.8-2.7,25.8-8.1,7-5.4,12.4-12.9,16.1-22.5,3.7-9.6,5.5-20.8,5.5-33.6s-1.8-23.6-5.4-33.1c-3.6-9.5-8.9-16.8-16-22.1-7-5.3-15.7-7.9-26-7.9s-19.5,2.8-26.6,8.3c-7.1,5.5-12.4,13-16,22.6-3.6,9.5-5.4,20.3-5.4,32.3s1.8,23,5.4,32.7c3.6,9.7,9,17.4,16.1,23,7.1,5.6,15.9,8.4,26.4,8.4Z"/>
      <path class="st0" d="M-2853.6-1191.7c-6.1,0-11.4-2.1-15.8-6.2-4.4-4.1-6.6-9.1-6.6-14.8s2.2-10.8,6.6-14.9c4.4-4.1,9.6-6.2,15.8-6.2s11.4,2.1,15.8,6.2c4.4,4.1,6.6,9.1,6.6,14.9s-2.2,10.7-6.6,14.8-9.6,6.2-15.8,6.2ZM-2871.4-982.2v-181.5h35.3v181.5h-35.3Z"/>
      <path class="st0" d="M-2758.1-978.1c-11.5,0-21.9-2.1-31.2-6.4-9.3-4.3-16.6-10.5-22-18.7-5.4-8.2-8.1-18.2-8.1-30.1s2-18.7,5.9-25.3c3.9-6.6,9.3-11.9,16-15.7,6.7-3.9,14.2-6.8,22.5-8.7,8.3-2,16.7-3.5,25.3-4.5,10.9-1.3,19.7-2.3,26.5-3.1,6.8-.8,11.7-2.2,14.8-4.1,3.1-1.9,4.6-5,4.6-9.2v-.8c0-10.3-2.9-18.3-8.7-24-5.8-5.7-14.4-8.5-25.8-8.5s-21.3,2.6-28.1,7.9c-6.8,5.2-11.5,11-14.1,17.4l-33.2-7.6c3.9-11,9.7-19.9,17.3-26.8,7.6-6.8,16.4-11.8,26.3-14.9,9.9-3.1,20.4-4.7,31.3-4.7s15,.8,23.1,2.5c8.2,1.7,15.8,4.8,22.9,9.3,7.1,4.5,13,10.9,17.5,19.2,4.6,8.3,6.9,19.1,6.9,32.3v120.5h-34.5v-24.8h-1.4c-2.3,4.6-5.7,9.1-10.3,13.5-4.6,4.4-10.4,8.1-17.6,11-7.2,2.9-15.8,4.4-25.8,4.4ZM-2750.4-1006.5c9.8,0,18.1-1.9,25.1-5.8,7-3.9,12.3-8.9,16-15.2,3.7-6.3,5.5-13,5.5-20.1v-23.4c-1.3,1.3-3.7,2.4-7.3,3.5-3.6,1.1-7.7,2-12.2,2.7-4.6.7-9,1.4-13.4,2-4.3.6-8,1.1-10.9,1.5-6.9.9-13.1,2.3-18.7,4.4s-10.1,5-13.5,8.8c-3.4,3.8-5,8.9-5,15.2s3.2,15.3,9.7,19.8c6.5,4.4,14.7,6.7,24.7,6.7Z"/>
    </g>
    <text class="st3" transform="translate(-2650 -982.3) rotate(.6)"><tspan x="0" y="0">TM</tspan></text>
  </g>
  <g>
    <g>
      <path class="st0" d="M720.7,1178.9h-35.4l79.5-203h38.5l79.5,203h-35.4l-62.4-166.1h-1.7l-62.5,166.1Z"/>
      <path class="st0" d="M945.5,1181.8c-12.3,0-23.2-3.2-32.9-9.5-9.6-6.3-17.1-15.3-22.6-27.1-5.5-11.7-8.2-25.8-8.2-42.3s2.8-30.5,8.3-42.2c5.5-11.7,13.1-20.7,22.7-26.9,9.6-6.2,20.6-9.3,32.8-9.3s17.1,1.6,22.8,4.7c5.8,3.1,10.3,6.8,13.5,11,3.2,4.2,5.7,7.8,7.5,11h1.8v-75.4h29.6v203h-28.9v-23.7h-2.5c-1.8,3.2-4.3,6.9-7.7,11.1-3.3,4.2-7.9,7.8-13.7,10.9-5.8,3.1-13.3,4.7-22.6,4.7ZM952.1,1156.5c8.5,0,15.7-2.3,21.7-6.8,5.9-4.5,10.4-10.8,13.5-18.9,3.1-8.1,4.6-17.4,4.6-28.2s-1.5-19.8-4.6-27.8c-3-7.9-7.5-14.1-13.4-18.5-5.9-4.4-13.1-6.6-21.8-6.6s-16.4,2.3-22.3,6.9c-5.9,4.6-10.4,10.9-13.4,18.9-3,8-4.5,17-4.5,27.1s1.5,19.3,4.6,27.5c3,8.1,7.5,14.6,13.5,19.3s13.4,7.1,22.2,7.1Z"/>
      <path class="st0" d="M1108.6,1181.9c-14.7,0-27.4-3.4-38-10.1-10.6-6.7-18.8-16-24.4-27.8-5.7-11.8-8.5-25.4-8.5-40.6s2.9-29.1,8.7-41c5.8-11.9,14-21.1,24.6-27.8,10.6-6.7,23-10,37.4-10s21.9,2.1,30.9,6.4c9.1,4.3,16.4,10.2,22,17.9,5.6,7.7,8.9,16.6,10,26.9h-28.8c-1.6-7.1-5.2-13.3-10.9-18.4-5.7-5.2-13.2-7.7-22.7-7.7s-15.5,2.2-21.7,6.5c-6.2,4.3-11,10.5-14.4,18.4-3.4,8-5.2,17.4-5.2,28.2s1.7,20.7,5.1,28.7c3.4,8.1,8.1,14.3,14.3,18.7,6.2,4.4,13.5,6.6,21.9,6.6s10.7-1,15.3-3.1c4.6-2.1,8.5-5.1,11.6-9,3.1-3.9,5.3-8.6,6.6-14.1h28.8c-1.1,9.8-4.3,18.6-9.6,26.4-5.4,7.7-12.5,13.8-21.5,18.2-9,4.4-19.4,6.6-31.5,6.6Z"/>
      <path class="st0" d="M1249.9,1181.9c-15,0-27.9-3.2-38.7-9.7-10.8-6.4-19.1-15.5-25-27.3-5.8-11.7-8.8-25.5-8.8-41.3s2.9-29.3,8.8-41.2c5.8-11.9,14-21.2,24.6-27.9,10.5-6.7,22.9-10,37-10s16.9,1.4,25,4.3c8.1,2.8,15.3,7.3,21.7,13.4,6.4,6.1,11.5,14,15.2,23.6,3.7,9.7,5.6,21.4,5.6,35.2v10.5h-121v-22.2h92c0-7.8-1.6-14.7-4.8-20.8-3.2-6-7.6-10.8-13.3-14.3-5.7-3.5-12.4-5.3-20.1-5.3s-15.6,2-21.8,6.1c-6.2,4.1-10.9,9.4-14.3,15.9-3.3,6.5-5,13.6-5,21.2v17.3c0,10.2,1.8,18.8,5.4,26,3.6,7.1,8.6,12.6,15.1,16.3,6.5,3.7,14,5.6,22.7,5.6s10.7-.8,15.4-2.4c4.6-1.6,8.6-4,12-7.3,3.4-3.2,5.9-7.2,7.7-12l28.1,5.1c-2.2,8.3-6.3,15.5-12,21.7-5.8,6.2-13,11-21.7,14.4-8.7,3.4-18.6,5.1-29.7,5.1Z"/>
      <path class="st0" d="M1359.2,1088.4v90.4h-29.6v-152.3h28.4v24.8h1.9c3.5-8.1,9-14.5,16.5-19.4,7.5-4.9,17-7.3,28.4-7.3s19.5,2.2,27.3,6.5c7.8,4.3,13.8,10.8,18.1,19.3,4.3,8.5,6.4,19.1,6.4,31.6v96.8h-29.6v-93.3c0-11-2.9-19.7-8.6-25.9-5.7-6.2-13.6-9.4-23.7-9.4s-13,1.5-18.3,4.5c-5.3,3-9.5,7.3-12.6,13-3.1,5.7-4.6,12.6-4.6,20.7Z"/>
      <path class="st0" d="M1534.6,1181.8c-12.3,0-23.2-3.2-32.9-9.5-9.6-6.3-17.1-15.3-22.6-27.1-5.5-11.7-8.2-25.8-8.2-42.3s2.8-30.5,8.3-42.2c5.5-11.7,13.1-20.7,22.7-26.9,9.6-6.2,20.6-9.3,32.8-9.3s17.1,1.6,22.8,4.7c5.8,3.1,10.3,6.8,13.5,11,3.2,4.2,5.7,7.8,7.5,11h1.8v-75.4h29.6v203h-28.9v-23.7h-2.5c-1.8,3.2-4.3,6.9-7.7,11.1-3.3,4.2-7.9,7.8-13.7,10.9-5.8,3.1-13.3,4.7-22.6,4.7ZM1541.1,1156.5c8.5,0,15.7-2.3,21.7-6.8,5.9-4.5,10.4-10.8,13.5-18.9,3.1-8.1,4.6-17.4,4.6-28.2s-1.5-19.8-4.6-27.8c-3-7.9-7.5-14.1-13.4-18.5-5.9-4.4-13.1-6.6-21.8-6.6s-16.4,2.3-22.3,6.9c-5.9,4.6-10.4,10.9-13.4,18.9-3,8-4.5,17-4.5,27.1s1.5,19.3,4.6,27.5c3,8.1,7.5,14.6,13.5,19.3,6,4.7,13.4,7.1,22.2,7.1Z"/>
      <path class="st0" d="M1648.5,1003.1c-5.2,0-9.6-1.7-13.2-5.2-3.7-3.5-5.5-7.6-5.5-12.4s1.8-9.1,5.5-12.5c3.7-3.5,8.1-5.2,13.2-5.2s9.6,1.7,13.2,5.2c3.7,3.5,5.5,7.6,5.5,12.5s-1.8,9-5.5,12.4c-3.7,3.5-8.1,5.2-13.2,5.2ZM1633.5,1178.9v-152.3h29.6v152.3h-29.6Z"/>
      <path class="st0" d="M1728.6,1182.2c-9.7,0-18.4-1.8-26.2-5.4-7.8-3.6-14-8.8-18.5-15.7-4.5-6.9-6.8-15.3-6.8-25.3s1.7-15.7,5-21.2c3.3-5.6,7.8-9.9,13.4-13.2,5.6-3.2,11.9-5.7,18.8-7.3,6.9-1.7,14-2.9,21.2-3.8,9.1-1.1,16.5-1.9,22.2-2.6,5.7-.7,9.8-1.8,12.4-3.4,2.6-1.6,3.9-4.2,3.9-7.7v-.7c0-8.7-2.4-15.4-7.3-20.1-4.9-4.8-12.1-7.1-21.7-7.1s-17.8,2.2-23.5,6.6c-5.7,4.4-9.7,9.3-11.8,14.6l-27.9-6.3c3.3-9.3,8.1-16.7,14.5-22.5,6.4-5.7,13.7-9.9,22.1-12.5,8.3-2.6,17.1-3.9,26.3-3.9s12.5.7,19.4,2.1c6.8,1.4,13.2,4,19.2,7.8,6,3.8,10.9,9.1,14.7,16.1,3.8,7,5.7,16,5.7,27.1v101.1h-28.9v-20.8h-1.2c-1.9,3.8-4.8,7.6-8.6,11.3-3.8,3.7-8.8,6.8-14.8,9.2-6,2.4-13.2,3.7-21.6,3.7ZM1735.1,1158.4c8.2,0,15.2-1.6,21.1-4.9,5.8-3.2,10.3-7.5,13.4-12.7,3.1-5.3,4.6-10.9,4.6-16.9v-19.6c-1.1,1.1-3.1,2-6.1,2.9-3,.9-6.4,1.7-10.3,2.3-3.8.6-7.6,1.2-11.2,1.7-3.6.5-6.7.9-9.1,1.2-5.8.7-11,1.9-15.7,3.7-4.7,1.7-8.5,4.2-11.3,7.4-2.8,3.2-4.2,7.5-4.2,12.7s2.7,12.9,8.1,16.6c5.4,3.7,12.3,5.6,20.7,5.6Z"/>
    </g>
    <text class="st4" transform="translate(1819.3 1178.8) rotate(.6)"><tspan x="0" y="0">TM</tspan></text>
    <path class="st0" d="M626.1,1035.9l-1,125.9v17.1h-100.3l1-125.2.3-40.7c0-11-14.3-15.2-20.1-5.9l-107.3,171.8h-118.2l126.8-203h122.6l25.1,15.7,71.1,44.4Z"/>
  </g>
  <g>
    <g>
      <g>
        <path class="st0" d="M-1633.2,1493.5h-32.9l74-189.1h35.9l74,189.1h-32.9l-58.2-154.7h-1.6l-58.3,154.7Z"/>
        <path class="st0" d="M-1423.8,1496.2c-11.4,0-21.6-2.9-30.6-8.8-9-5.9-16-14.3-21-25.2-5.1-10.9-7.6-24.1-7.6-39.4s2.6-28.4,7.7-39.3c5.1-10.9,12.2-19.2,21.2-25,9-5.8,19.2-8.7,30.6-8.7s15.9,1.5,21.3,4.4c5.4,2.9,9.6,6.3,12.6,10.2,3,3.9,5.3,7.3,7,10.2h1.7v-70.3h27.6v189.1h-27v-22.1h-2.3c-1.7,3-4,6.5-7.2,10.3-3.1,3.9-7.4,7.3-12.8,10.2-5.4,2.9-12.4,4.3-21.1,4.3ZM-1417.7,1472.7c7.9,0,14.7-2.1,20.2-6.3,5.5-4.2,9.7-10.1,12.6-17.6,2.9-7.5,4.3-16.2,4.3-26.2s-1.4-18.5-4.2-25.9c-2.8-7.4-7-13.1-12.5-17.3-5.5-4.1-12.2-6.2-20.3-6.2s-15.2,2.2-20.8,6.5c-5.5,4.3-9.7,10.2-12.5,17.6-2.8,7.4-4.2,15.8-4.2,25.2s1.4,18,4.2,25.6c2.8,7.6,7,13.6,12.6,18,5.6,4.4,12.4,6.6,20.6,6.6Z"/>
        <path class="st0" d="M-1271.9,1496.3c-13.7,0-25.5-3.1-35.4-9.4-9.9-6.2-17.5-14.9-22.8-25.9-5.3-11-7.9-23.6-7.9-37.9s2.7-27.1,8.1-38.2c5.4-11,13-19.7,22.9-25.9,9.8-6.2,21.5-9.3,34.8-9.3s20.4,2,28.8,6c8.4,4,15.2,9.5,20.4,16.7,5.2,7.1,8.3,15.5,9.3,25h-26.9c-1.5-6.6-4.8-12.4-10.1-17.2-5.3-4.8-12.3-7.2-21.1-7.2s-14.4,2-20.2,6c-5.8,4-10.2,9.8-13.4,17.2-3.2,7.4-4.8,16.2-4.8,26.3s1.6,19.3,4.7,26.8c3.1,7.5,7.6,13.3,13.3,17.5,5.8,4.1,12.5,6.2,20.4,6.2s10-1,14.3-2.9c4.3-1.9,7.9-4.7,10.8-8.4,2.9-3.6,5-8,6.1-13.1h26.9c-1,9.2-4,17.4-9,24.6-5,7.2-11.6,12.9-20,17-8.3,4.1-18.1,6.2-29.3,6.2Z"/>
        <path class="st0" d="M-1140.3,1496.3c-14,0-26-3-36.1-9-10.1-6-17.8-14.5-23.3-25.4-5.4-10.9-8.2-23.7-8.2-38.5s2.7-27.3,8.2-38.4c5.4-11.1,13.1-19.7,22.9-25.9,9.8-6.2,21.3-9.3,34.5-9.3s15.8,1.3,23.3,4c7.5,2.6,14.2,6.8,20.2,12.5,6,5.7,10.7,13,14.1,22,3.4,9,5.2,20,5.2,32.8v9.8h-112.7v-20.7h85.7c0-7.3-1.5-13.7-4.4-19.3-3-5.6-7.1-10.1-12.4-13.3-5.3-3.3-11.6-4.9-18.7-4.9s-14.5,1.9-20.3,5.7c-5.8,3.8-10.2,8.7-13.3,14.8-3.1,6.1-4.7,12.6-4.7,19.7v16.2c0,9.5,1.7,17.5,5,24.2,3.4,6.6,8,11.7,14.1,15.2,6,3.5,13.1,5.2,21.1,5.2s10-.8,14.3-2.3c4.3-1.5,8-3.8,11.2-6.8,3.1-3,5.5-6.7,7.2-11.2l26.1,4.7c-2.1,7.7-5.8,14.4-11.2,20.2-5.4,5.8-12.1,10.2-20.2,13.4-8.1,3.2-17.3,4.8-27.7,4.8Z"/>
        <path class="st0" d="M-1038.5,1409.3v84.2h-27.6v-141.8h26.5v23.1h1.8c3.3-7.5,8.4-13.5,15.4-18.1,7-4.6,15.8-6.8,26.5-6.8s18.1,2,25.4,6c7.3,4,12.9,10,16.9,18,4,7.9,6,17.8,6,29.5v90.2h-27.6v-86.9c0-10.3-2.7-18.3-8-24.1-5.4-5.8-12.7-8.7-22.1-8.7s-12.1,1.4-17,4.2c-5,2.8-8.9,6.8-11.7,12.1-2.9,5.3-4.3,11.7-4.3,19.3Z"/>
        <path class="st0" d="M-875.2,1496.2c-11.4,0-21.6-2.9-30.6-8.8-9-5.9-16-14.3-21-25.2-5.1-10.9-7.6-24.1-7.6-39.4s2.6-28.4,7.7-39.3c5.1-10.9,12.2-19.2,21.2-25,9-5.8,19.2-8.7,30.6-8.7s15.9,1.5,21.3,4.4c5.4,2.9,9.6,6.3,12.6,10.2,3,3.9,5.3,7.3,7,10.2h1.7v-70.3h27.6v189.1h-27v-22.1h-2.3c-1.7,3-4,6.5-7.2,10.3-3.1,3.9-7.4,7.3-12.8,10.2-5.4,2.9-12.4,4.3-21.1,4.3ZM-869.1,1472.7c7.9,0,14.7-2.1,20.2-6.3,5.5-4.2,9.7-10.1,12.6-17.6,2.9-7.5,4.3-16.2,4.3-26.2s-1.4-18.5-4.2-25.9c-2.8-7.4-7-13.1-12.5-17.3-5.5-4.1-12.2-6.2-20.3-6.2s-15.2,2.2-20.8,6.5c-5.5,4.3-9.7,10.2-12.5,17.6-2.8,7.4-4.2,15.8-4.2,25.2s1.4,18,4.2,25.6c2.8,7.6,7,13.6,12.6,18,5.6,4.4,12.4,6.6,20.6,6.6Z"/>
        <path class="st0" d="M-769,1329.8c-4.8,0-8.9-1.6-12.3-4.8-3.4-3.2-5.1-7.1-5.1-11.6s1.7-8.4,5.1-11.7c3.4-3.2,7.5-4.8,12.3-4.8s8.9,1.6,12.3,4.8c3.4,3.2,5.1,7.1,5.1,11.7s-1.7,8.4-5.1,11.6c-3.4,3.2-7.5,4.8-12.3,4.8ZM-783,1493.5v-141.8h27.6v141.8h-27.6Z"/>
        <path class="st0" d="M-694.4,1496.6c-9,0-17.1-1.7-24.4-5-7.3-3.4-13-8.2-17.2-14.6-4.2-6.4-6.3-14.2-6.3-23.5s1.5-14.6,4.6-19.8c3.1-5.2,7.2-9.3,12.5-12.3,5.2-3,11.1-5.3,17.5-6.8,6.5-1.5,13-2.7,19.8-3.5,8.5-1,15.4-1.8,20.7-2.4,5.3-.6,9.1-1.7,11.5-3.2,2.4-1.5,3.6-3.9,3.6-7.2v-.6c0-8.1-2.3-14.3-6.8-18.7s-11.2-6.6-20.2-6.6-16.6,2-21.9,6.1c-5.3,4.1-9,8.6-11,13.6l-25.9-5.9c3.1-8.6,7.6-15.6,13.5-20.9,5.9-5.3,12.8-9.2,20.5-11.6,7.8-2.4,15.9-3.6,24.5-3.6s11.7.7,18.1,2c6.4,1.3,12.3,3.7,17.9,7.2,5.6,3.5,10.1,8.5,13.7,15,3.6,6.5,5.4,14.9,5.4,25.3v94.2h-27v-19.4h-1.1c-1.8,3.6-4.5,7.1-8,10.5-3.6,3.4-8.2,6.3-13.8,8.6-5.6,2.3-12.3,3.4-20.1,3.4ZM-688.4,1474.4c7.6,0,14.2-1.5,19.6-4.5,5.4-3,9.6-7,12.5-11.9,2.9-4.9,4.3-10.1,4.3-15.7v-18.3c-1,1-2.9,1.9-5.7,2.7-2.8.8-6,1.5-9.6,2.1-3.6.6-7,1.1-10.4,1.6-3.4.5-6.2.8-8.5,1.2-5.4.7-10.2,1.8-14.6,3.4-4.4,1.6-7.9,3.9-10.5,6.9-2.6,3-3.9,6.9-3.9,11.9s2.5,12,7.6,15.5c5,3.5,11.5,5.2,19.3,5.2Z"/>
      </g>
      <text class="st2" transform="translate(-610 1493.4) rotate(.6)"><tspan x="0" y="0">TM</tspan></text>
    </g>
    <path class="st0" d="M-666.1,822.6l-2.7,353.2-.3,47.9h-281.1l2.7-351.4.9-114.3c.2-30.9-40.1-42.6-56.5-16.5l-301.2,482.2h-331.5l355.8-569.6h344l70.4,43.9,199.5,124.6Z"/>
  </g>
  <g>
    <g>
      <g>
        <path class="st0" d="M-1747-809.1h-40.1l90.1-230.2h43.7l90.1,230.2h-40.1l-70.8-188.4h-2l-70.9,188.4Z"/>
        <path class="st0" d="M-1492-805.7c-13.9,0-26.4-3.6-37.3-10.7-10.9-7.2-19.4-17.4-25.6-30.7-6.2-13.3-9.3-29.3-9.3-47.9s3.1-34.6,9.4-47.9c6.3-13.3,14.9-23.4,25.8-30.5,10.9-7,23.3-10.6,37.2-10.6s19.4,1.8,25.9,5.3c6.6,3.6,11.7,7.7,15.3,12.4,3.6,4.7,6.5,8.9,8.5,12.5h2v-85.5h33.6v230.2h-32.8v-26.9h-2.8c-2,3.7-4.9,7.9-8.7,12.6-3.8,4.7-9,8.8-15.6,12.4-6.6,3.5-15.1,5.3-25.6,5.3ZM-1484.6-834.4c9.7,0,17.9-2.6,24.6-7.7,6.7-5.1,11.8-12.3,15.3-21.4,3.5-9.1,5.2-19.8,5.2-31.9s-1.7-22.5-5.2-31.5c-3.4-9-8.5-16-15.2-21-6.7-5-14.9-7.5-24.7-7.5s-18.5,2.6-25.3,7.9c-6.7,5.2-11.8,12.4-15.2,21.5-3.4,9.1-5.1,19.3-5.1,30.7s1.7,21.9,5.2,31.1c3.4,9.2,8.6,16.5,15.3,21.9,6.8,5.4,15.2,8,25.1,8Z"/>
        <path class="st0" d="M-1307.1-805.6c-16.7,0-31.1-3.8-43.1-11.4-12-7.6-21.3-18.1-27.7-31.5-6.4-13.4-9.7-28.8-9.7-46.1s3.3-33,9.9-46.5c6.6-13.5,15.9-24,27.9-31.5,12-7.6,26.1-11.4,42.4-11.4s24.8,2.4,35.1,7.2c10.3,4.8,18.6,11.6,24.9,20.3,6.3,8.7,10.1,18.8,11.3,30.5h-32.7c-1.8-8.1-5.9-15.1-12.3-20.9-6.4-5.8-15-8.8-25.7-8.8s-17.6,2.5-24.6,7.4c-7,4.9-12.5,11.9-16.4,20.9-3.9,9-5.8,19.7-5.8,32s1.9,23.5,5.7,32.6c3.8,9.1,9.2,16.2,16.2,21.2,7,5,15.3,7.5,24.8,7.5s12.2-1.2,17.4-3.5c5.2-2.4,9.6-5.8,13.2-10.2,3.6-4.4,6-9.7,7.5-16h32.7c-1.2,11.2-4.8,21.1-10.9,29.9-6.1,8.8-14.2,15.7-24.3,20.7-10.2,5-22.1,7.5-35.7,7.5Z"/>
        <path class="st0" d="M-1146.9-805.6c-17,0-31.6-3.7-43.9-11-12.3-7.3-21.7-17.6-28.3-30.9-6.6-13.3-9.9-28.9-9.9-46.8s3.3-33.3,9.9-46.8c6.6-13.5,15.9-24,27.9-31.6,12-7.6,25.9-11.4,42-11.4s19.2,1.6,28.3,4.8c9.1,3.2,17.3,8.3,24.6,15.2,7.3,6.9,13,15.8,17.2,26.8,4.2,11,6.3,24.3,6.3,40v11.9h-137.3v-25.2h104.3c0-8.8-1.8-16.7-5.4-23.5-3.6-6.9-8.6-12.3-15.1-16.2-6.5-4-14.1-6-22.8-6s-17.7,2.3-24.7,6.9c-7,4.6-12.4,10.6-16.2,18-3.8,7.4-5.7,15.4-5.7,24v19.7c0,11.5,2,21.4,6.1,29.5,4.1,8.1,9.8,14.3,17.1,18.5,7.3,4.2,15.9,6.4,25.7,6.4s12.2-.9,17.4-2.8c5.2-1.8,9.8-4.6,13.6-8.3,3.8-3.7,6.7-8.2,8.8-13.6l31.8,5.7c-2.5,9.4-7.1,17.6-13.7,24.6-6.6,7-14.8,12.4-24.6,16.3-9.9,3.9-21.1,5.8-33.7,5.8Z"/>
        <path class="st0" d="M-1023-911.6v102.5h-33.6v-172.7h32.3v28.1h2.1c4-9.1,10.2-16.5,18.7-22,8.5-5.5,19.2-8.3,32.2-8.3s22.1,2.5,30.9,7.4c8.8,4.9,15.7,12.2,20.6,21.9,4.9,9.7,7.3,21.6,7.3,35.9v109.8h-33.6v-105.8c0-12.5-3.3-22.3-9.8-29.4-6.5-7.1-15.5-10.6-26.9-10.6s-14.7,1.7-20.7,5.1c-6,3.4-10.8,8.3-14.3,14.8-3.5,6.5-5.2,14.3-5.2,23.4Z"/>
        <path class="st0" d="M-824.1-805.7c-13.9,0-26.4-3.6-37.3-10.7-10.9-7.2-19.4-17.4-25.6-30.7-6.2-13.3-9.3-29.3-9.3-47.9s3.1-34.6,9.4-47.9c6.3-13.3,14.9-23.4,25.8-30.5,10.9-7,23.3-10.6,37.2-10.6s19.4,1.8,25.9,5.3c6.6,3.6,11.7,7.7,15.3,12.4,3.6,4.7,6.5,8.9,8.5,12.5h2v-85.5h33.6v230.2h-32.8v-26.9h-2.8c-2,3.7-4.9,7.9-8.7,12.6-3.8,4.7-9,8.8-15.6,12.4-6.6,3.5-15.1,5.3-25.6,5.3ZM-816.6-834.4c9.7,0,17.9-2.6,24.6-7.7,6.7-5.1,11.8-12.3,15.3-21.4,3.5-9.1,5.2-19.8,5.2-31.9s-1.7-22.5-5.2-31.5c-3.4-9-8.5-16-15.2-21-6.7-5-14.9-7.5-24.7-7.5s-18.5,2.6-25.3,7.9c-6.7,5.2-11.8,12.4-15.2,21.5-3.4,9.1-5.1,19.3-5.1,30.7s1.7,21.9,5.2,31.1c3.4,9.2,8.6,16.5,15.3,21.9,6.8,5.4,15.2,8,25.1,8Z"/>
        <path class="st0" d="M-694.9-1008.4c-5.8,0-10.8-2-15-5.9-4.2-3.9-6.2-8.6-6.2-14.1s2.1-10.3,6.2-14.2c4.2-3.9,9.2-5.9,15-5.9s10.8,2,15,5.9c4.2,3.9,6.2,8.7,6.2,14.2s-2.1,10.2-6.2,14.1-9.2,5.9-15,5.9ZM-711.8-809.1v-172.7h33.6v172.7h-33.6Z"/>
        <path class="st0" d="M-604-805.3c-10.9,0-20.8-2-29.7-6.1-8.8-4.1-15.8-10-21-17.8-5.1-7.8-7.7-17.3-7.7-28.7s1.9-17.8,5.6-24.1c3.7-6.3,8.8-11.3,15.2-14.9,6.4-3.7,13.5-6.4,21.4-8.3,7.9-1.9,15.9-3.3,24.1-4.3,10.3-1.2,18.7-2.2,25.2-3,6.4-.8,11.1-2.1,14.1-3.9,2.9-1.8,4.4-4.7,4.4-8.8v-.8c0-9.8-2.8-17.4-8.3-22.8-5.5-5.4-13.7-8.1-24.6-8.1s-20.2,2.5-26.7,7.5c-6.5,5-11,10.5-13.4,16.6l-31.6-7.2c3.7-10.5,9.2-19,16.5-25.5,7.2-6.5,15.6-11.2,25-14.2,9.4-3,19.4-4.4,29.8-4.4s14.2.8,22,2.4c7.8,1.6,15,4.6,21.8,8.8,6.8,4.3,12.3,10.4,16.7,18.3,4.3,7.9,6.5,18.2,6.5,30.7v114.7h-32.8v-23.6h-1.3c-2.2,4.3-5.4,8.6-9.8,12.8-4.3,4.2-9.9,7.7-16.7,10.5-6.8,2.8-15,4.2-24.5,4.2ZM-596.7-832.3c9.3,0,17.3-1.8,23.9-5.5,6.6-3.7,11.7-8.5,15.2-14.4,3.5-6,5.2-12.3,5.2-19.2v-22.3c-1.2,1.2-3.5,2.3-6.9,3.3-3.4,1-7.3,1.9-11.6,2.6-4.3.7-8.6,1.3-12.7,1.9-4.1.6-7.6,1-10.3,1.4-6.5.8-12.5,2.2-17.8,4.2s-9.6,4.7-12.8,8.4c-3.2,3.6-4.8,8.5-4.8,14.4s3.1,14.6,9.2,18.8c6.1,4.2,14,6.4,23.5,6.4Z"/>
      </g>
      <text class="st1" transform="translate(-501.2 -809.2) rotate(.6)"><tspan x="0" y="0">TM</tspan></text>
    </g>
    <path class="st0" d="M-931.3-1326.7l-1.3,166.5v22.6h-132.6l1.3-165.6.4-53.9c.1-14.5-18.9-20.1-26.6-7.8l-142,227.3h-156.3l167.7-268.5h162.2l33.2,20.7,94,58.8Z"/>
  </g>
  <path class="st0" d="M-2836.9,971.4l-2.5,330-.3,44.7h-262.7l2.5-328.4.8-106.8c.2-28.8-37.5-39.8-52.8-15.4l-281.5,450.6h-309.8l332.5-532.3h321.5l65.8,41.1,186.4,116.5Z"/>
</svg>