<svg xmlns="http://www.w3.org/2000/svg" xmlns:xlink="http://www.w3.org/1999/xlink" width="2000" zoomAndPan="magnify" viewBox="0 0 1500 449.999984" height="600" preserveAspectRatio="xMidYMid meet" version="1.2"><defs/><g id="39df8941b0"><rect x="0" width="1500" y="0" height="449.999984" style="fill:#ffffff;fill-opacity:1;stroke:none;"/><rect x="0" width="1500" y="0" height="449.999984" style="fill:#ffffff;fill-opacity:1;stroke:none;"/><path style=" stroke:none;fill-rule:nonzero;fill:#023c2c;fill-opacity:1;" d="M 499.074219 293.75 L 474.367188 293.75 L 529.851562 152.074219 L 556.722656 152.074219 L 612.207031 293.75 L 587.5 293.75 L 543.949219 177.828125 L 542.765625 177.828125 L 499.144531 293.75 Z M 499.074219 293.75 "/><path style=" stroke:none;fill-rule:nonzero;fill:#023c2c;fill-opacity:1;" d="M 655.96875 295.773438 C 647.382812 295.773438 639.773438 293.542969 633.003906 289.144531 C 626.304688 284.746094 621.070312 278.464844 617.234375 270.230469 C 613.394531 262.066406 611.507812 252.222656 611.507812 240.707031 C 611.507812 229.191406 613.464844 219.421875 617.300781 211.257812 C 621.140625 203.089844 626.445312 196.808594 633.144531 192.484375 C 639.84375 188.15625 647.523438 185.992188 656.035156 185.992188 C 664.550781 185.992188 667.972656 187.109375 671.949219 189.273438 C 675.996094 191.4375 679.136719 194.019531 681.371094 196.949219 C 683.605469 199.878906 685.347656 202.394531 686.605469 204.625 L 687.863281 204.625 L 687.863281 152.003906 L 708.519531 152.003906 L 708.519531 293.679688 L 688.351562 293.679688 L 688.351562 277.140625 L 686.605469 277.140625 C 685.347656 279.375 683.605469 281.957031 681.230469 284.886719 C 678.929688 287.816406 675.71875 290.332031 671.667969 292.496094 C 667.621094 294.65625 662.386719 295.773438 655.898438 295.773438 Z M 660.574219 278.117188 C 666.503906 278.117188 671.53125 276.511719 675.71875 273.371094 C 679.835938 270.230469 682.976562 265.832031 685.140625 260.179688 C 687.304688 254.527344 688.351562 248.035156 688.351562 240.5 C 688.351562 232.960938 687.304688 226.679688 685.140625 221.097656 C 683.046875 215.582031 679.90625 211.257812 675.789062 208.1875 C 671.667969 205.113281 666.644531 203.578125 660.574219 203.578125 C 654.5 203.578125 649.128906 205.183594 645.007812 208.394531 C 640.890625 211.605469 637.75 216.003906 635.65625 221.585938 C 633.5625 227.167969 632.515625 233.449219 632.515625 240.5 C 632.515625 247.546875 633.5625 253.96875 635.726562 259.691406 C 637.820312 265.34375 640.960938 269.882812 645.148438 273.160156 C 649.335938 276.441406 654.5 278.117188 660.644531 278.117188 Z M 660.574219 278.117188 "/><path style=" stroke:none;fill-rule:nonzero;fill:#023c2c;fill-opacity:1;" d="M 769.796875 295.84375 C 759.539062 295.84375 750.675781 293.472656 743.277344 288.796875 C 735.878906 284.121094 730.15625 277.628906 726.246094 269.394531 C 722.269531 261.15625 720.316406 251.667969 720.316406 241.058594 C 720.316406 230.449219 722.339844 220.75 726.386719 212.441406 C 730.433594 204.136719 736.15625 197.71875 743.554688 193.042969 C 750.953125 188.363281 759.605469 186.0625 769.65625 186.0625 C 779.707031 186.0625 784.941406 187.527344 791.222656 190.527344 C 797.574219 193.53125 802.667969 197.648438 806.578125 203.019531 C 810.484375 208.394531 812.789062 214.605469 813.554688 221.796875 L 793.457031 221.796875 C 792.339844 216.839844 789.828125 212.511719 785.847656 208.953125 C 781.871094 205.324219 776.636719 203.578125 770.007812 203.578125 C 763.375 203.578125 759.1875 205.113281 754.863281 208.117188 C 750.535156 211.117188 747.183594 215.445312 744.8125 220.957031 C 742.4375 226.542969 741.183594 233.101562 741.183594 240.640625 C 741.183594 248.175781 742.367188 255.085938 744.742188 260.667969 C 747.113281 266.324219 750.394531 270.648438 754.722656 273.71875 C 759.050781 276.792969 764.144531 278.328125 770.007812 278.328125 C 775.867188 278.328125 777.472656 277.628906 780.683594 276.164062 C 783.894531 274.699219 786.617188 272.605469 788.78125 269.882812 C 790.945312 267.160156 792.480469 263.878906 793.386719 260.042969 L 813.488281 260.042969 C 812.71875 266.878906 810.484375 273.023438 806.785156 278.464844 C 803.019531 283.839844 798.0625 288.097656 791.78125 291.167969 C 785.5 294.238281 778.242188 295.773438 769.796875 295.773438 Z M 769.796875 295.84375 "/><path style=" stroke:none;fill-rule:nonzero;fill:#023c2c;fill-opacity:1;" d="M 868.414062 295.84375 C 857.945312 295.84375 848.941406 293.609375 841.402344 289.074219 C 833.867188 284.609375 828.074219 278.257812 823.957031 270.019531 C 819.90625 261.855469 817.8125 252.222656 817.8125 241.199219 C 817.8125 230.171875 819.835938 220.75 823.957031 212.441406 C 828.003906 204.136719 833.726562 197.648438 841.125 192.972656 C 848.453125 188.296875 857.105469 185.992188 866.945312 185.992188 C 876.789062 185.992188 878.742188 186.96875 884.394531 188.992188 C 890.046875 190.949219 895.074219 194.089844 899.539062 198.34375 C 904.007812 202.601562 907.566406 208.117188 910.148438 214.816406 C 912.730469 221.585938 914.054688 229.75 914.054688 239.382812 L 914.054688 246.710938 L 829.609375 246.710938 L 829.609375 231.21875 L 893.816406 231.21875 C 893.816406 225.773438 892.699219 220.957031 890.464844 216.699219 C 888.234375 212.511719 885.164062 209.164062 881.183594 206.71875 C 877.207031 204.277344 872.53125 203.019531 867.15625 203.019531 C 861.78125 203.019531 856.269531 204.417969 851.941406 207.277344 C 847.613281 210.140625 844.335938 213.839844 841.960938 218.375 C 839.660156 222.910156 838.472656 227.867188 838.472656 233.171875 L 838.472656 245.246094 C 838.472656 252.363281 839.726562 258.367188 842.242188 263.390625 C 844.753906 268.347656 848.242188 272.183594 852.777344 274.765625 C 857.316406 277.347656 862.550781 278.675781 868.621094 278.675781 C 874.695312 278.675781 876.089844 278.117188 879.371094 277 C 882.582031 275.882812 885.371094 274.207031 887.746094 271.90625 C 890.117188 269.671875 891.863281 266.878906 893.117188 263.53125 L 912.730469 267.089844 C 911.195312 272.882812 908.332031 277.90625 904.355469 282.234375 C 900.308594 286.5625 895.28125 289.910156 889.210938 292.285156 C 883.136719 294.65625 876.230469 295.84375 868.480469 295.84375 Z M 868.414062 295.84375 "/><path style=" stroke:none;fill-rule:nonzero;fill:#023c2c;fill-opacity:1;" d="M 944.695312 230.589844 L 944.695312 293.679688 L 924.035156 293.679688 L 924.035156 187.386719 L 943.855469 187.386719 L 943.855469 204.695312 L 945.183594 204.695312 C 947.625 199.042969 951.464844 194.578125 956.699219 191.15625 C 961.933594 187.738281 968.5625 186.0625 976.519531 186.0625 C 984.476562 186.0625 990.128906 187.597656 995.574219 190.597656 C 1001.015625 193.597656 1005.203125 198.136719 1008.207031 204.066406 C 1011.207031 210 1012.671875 217.398438 1012.671875 226.121094 L 1012.671875 293.679688 L 992.015625 293.679688 L 992.015625 228.566406 C 992.015625 220.886719 989.988281 214.816406 986.011719 210.488281 C 982.035156 206.160156 976.519531 203.929688 969.472656 203.929688 C 962.421875 203.929688 960.398438 204.976562 956.699219 207.070312 C 953 209.164062 950.070312 212.164062 947.90625 216.140625 C 945.742188 220.121094 944.695312 224.9375 944.695312 230.589844 Z M 944.695312 230.589844 "/><path style=" stroke:none;fill-rule:nonzero;fill:#023c2c;fill-opacity:1;" d="M 1067.109375 295.773438 C 1058.523438 295.773438 1050.917969 293.542969 1044.148438 289.144531 C 1037.449219 284.746094 1032.214844 278.464844 1028.375 270.230469 C 1024.535156 262.066406 1022.652344 252.222656 1022.652344 240.707031 C 1022.652344 229.191406 1024.605469 219.421875 1028.445312 211.257812 C 1032.285156 203.089844 1037.585938 196.808594 1044.289062 192.484375 C 1050.988281 188.15625 1058.664062 185.992188 1067.179688 185.992188 C 1075.695312 185.992188 1079.113281 187.109375 1083.09375 189.273438 C 1087.140625 191.4375 1090.28125 194.019531 1092.515625 196.949219 C 1094.746094 199.878906 1096.492188 202.394531 1097.75 204.625 L 1099.003906 204.625 L 1099.003906 152.003906 L 1119.664062 152.003906 L 1119.664062 293.679688 L 1099.492188 293.679688 L 1099.492188 277.140625 L 1097.75 277.140625 C 1096.492188 279.375 1094.746094 281.957031 1092.375 284.886719 C 1090.070312 287.816406 1086.859375 290.332031 1082.8125 292.496094 C 1078.765625 294.65625 1073.53125 295.773438 1067.039062 295.773438 Z M 1071.644531 278.117188 C 1077.578125 278.117188 1082.601562 276.511719 1086.789062 273.371094 C 1090.910156 270.230469 1094.050781 265.832031 1096.210938 260.179688 C 1098.375 254.527344 1099.421875 248.035156 1099.421875 240.5 C 1099.421875 232.960938 1098.375 226.679688 1096.210938 221.097656 C 1094.117188 215.582031 1090.976562 211.257812 1086.859375 208.1875 C 1082.742188 205.113281 1077.71875 203.578125 1071.644531 203.578125 C 1065.574219 203.578125 1060.199219 205.183594 1056.082031 208.394531 C 1051.964844 211.605469 1048.824219 216.003906 1046.730469 221.585938 C 1044.636719 227.167969 1043.589844 233.449219 1043.589844 240.5 C 1043.589844 247.546875 1044.636719 253.96875 1046.800781 259.691406 C 1048.894531 265.34375 1052.035156 269.882812 1056.222656 273.160156 C 1060.410156 276.441406 1065.574219 278.117188 1071.714844 278.117188 Z M 1071.644531 278.117188 "/><path style=" stroke:none;fill-rule:nonzero;fill:#023c2c;fill-opacity:1;" d="M 1146.601562 171.058594 C 1142.972656 171.058594 1139.902344 169.871094 1137.390625 167.425781 C 1134.808594 164.984375 1133.550781 162.125 1133.550781 158.773438 C 1133.550781 155.421875 1134.808594 152.421875 1137.390625 150.050781 C 1139.972656 147.605469 1143.042969 146.421875 1146.601562 146.421875 C 1150.160156 146.421875 1153.300781 147.605469 1155.816406 150.050781 C 1158.398438 152.492188 1159.652344 155.355469 1159.652344 158.773438 C 1159.652344 162.191406 1158.398438 165.054688 1155.816406 167.425781 C 1153.230469 169.871094 1150.160156 171.058594 1146.601562 171.058594 Z M 1136.132812 293.75 L 1136.132812 187.457031 L 1156.792969 187.457031 L 1156.792969 293.75 Z M 1136.132812 293.75 "/><path style=" stroke:none;fill-rule:nonzero;fill:#023c2c;fill-opacity:1;" d="M 1202.503906 296.054688 C 1195.734375 296.054688 1189.664062 294.796875 1184.21875 292.285156 C 1178.777344 289.773438 1174.449219 286.144531 1171.308594 281.328125 C 1168.167969 276.511719 1166.5625 270.648438 1166.5625 263.671875 C 1166.5625 256.691406 1167.75 252.714844 1170.050781 248.875 C 1172.355469 244.964844 1175.496094 241.964844 1179.402344 239.660156 C 1183.3125 237.429688 1187.710938 235.683594 1192.523438 234.566406 C 1197.339844 233.378906 1202.296875 232.542969 1207.320312 231.914062 C 1213.671875 231.148438 1218.835938 230.589844 1222.816406 230.101562 C 1226.792969 229.613281 1229.652344 228.84375 1231.46875 227.726562 C 1233.285156 226.609375 1234.191406 224.796875 1234.191406 222.355469 L 1234.191406 221.863281 C 1234.191406 215.792969 1232.515625 211.117188 1229.097656 207.835938 C 1225.675781 204.488281 1220.652344 202.882812 1213.949219 202.882812 C 1207.25 202.882812 1201.527344 204.417969 1197.550781 207.488281 C 1193.570312 210.558594 1190.78125 213.980469 1189.316406 217.675781 L 1169.84375 213.28125 C 1172.144531 206.789062 1175.496094 201.625 1179.960938 197.578125 C 1184.429688 193.597656 1189.523438 190.667969 1195.386719 188.855469 C 1201.179688 187.039062 1207.320312 186.132812 1213.742188 186.132812 C 1220.164062 186.132812 1222.464844 186.621094 1227.28125 187.597656 C 1232.027344 188.574219 1236.492188 190.390625 1240.679688 193.042969 C 1244.867188 195.691406 1248.289062 199.390625 1250.941406 204.277344 C 1253.59375 209.164062 1254.917969 215.445312 1254.917969 223.191406 L 1254.917969 293.75 L 1234.75 293.75 L 1234.75 279.234375 L 1233.910156 279.234375 C 1232.585938 281.886719 1230.5625 284.539062 1227.910156 287.121094 C 1225.257812 289.703125 1221.769531 291.867188 1217.582031 293.542969 C 1213.394531 295.214844 1208.367188 296.125 1202.503906 296.125 Z M 1207.042969 279.441406 C 1212.765625 279.441406 1217.648438 278.328125 1221.769531 276.023438 C 1225.816406 273.789062 1228.957031 270.789062 1231.121094 267.160156 C 1233.285156 263.460938 1234.332031 259.550781 1234.332031 255.363281 L 1234.332031 241.6875 C 1233.5625 242.453125 1232.167969 243.082031 1230.074219 243.710938 C 1227.980469 244.339844 1225.605469 244.894531 1222.882812 245.316406 C 1220.230469 245.734375 1217.582031 246.152344 1215.066406 246.5 C 1212.554688 246.851562 1210.390625 247.128906 1208.714844 247.339844 C 1204.667969 247.828125 1201.039062 248.664062 1197.757812 249.921875 C 1194.480469 251.109375 1191.828125 252.851562 1189.871094 255.085938 C 1187.917969 257.320312 1186.941406 260.320312 1186.941406 263.949219 C 1186.941406 267.578125 1188.824219 272.953125 1192.59375 275.535156 C 1196.363281 278.117188 1201.179688 279.441406 1207.042969 279.441406 Z M 1207.042969 279.441406 "/><g style="fill:#023c2c;fill-opacity:1;"><g transform="translate(1265.806345, 293.680818)"><path style="stroke:none" d="M 4.328125 0.046875 L 4.328125 -0.6875 L 7.28125 -1.015625 L 7.453125 -17.1875 L 6.75 -17.203125 C 4.425781 -17.222656 2.832031 -17.148438 1.96875 -16.984375 L 1.578125 -14.109375 L 0.65625 -14.125 L 0.703125 -18.453125 L 16.9375 -18.28125 L 16.890625 -13.953125 L 15.953125 -13.953125 L 15.609375 -16.84375 C 15.335938 -16.90625 14.738281 -16.96875 13.8125 -17.03125 C 12.894531 -17.09375 11.882812 -17.128906 10.78125 -17.140625 L 10.109375 -17.140625 L 9.9375 -0.984375 L 12.859375 -0.59375 L 12.859375 0.140625 Z M 4.328125 0.046875 "/></g></g><g style="fill:#023c2c;fill-opacity:1;"><g transform="translate(1283.024605, 293.861134)"><path style="stroke:none" d="M 11.859375 0.125 L 11.375 0.125 L 4.796875 -15.828125 L 4.640625 -1.046875 L 7.109375 -0.65625 L 7.109375 0.078125 L 0.8125 0.015625 L 0.8125 -0.71875 L 3.1875 -1.0625 L 3.359375 -17.34375 L 1 -17.71875 L 1 -18.4375 L 6.59375 -18.390625 L 12.453125 -4.296875 L 19.140625 -18.25 L 24.421875 -18.203125 L 24.421875 -17.484375 L 22.0625 -17.140625 L 21.890625 -0.859375 L 24.234375 -0.484375 L 24.234375 0.25 L 16.75 0.171875 L 16.75 -0.5625 L 19.25 -0.890625 L 19.40625 -15.671875 Z M 11.859375 0.125 "/></g></g><path style=" stroke:none;fill-rule:nonzero;fill:#023c2c;fill-opacity:1;" d="M 433.050781 193.949219 L 432.355469 281.816406 L 432.355469 293.75 L 362.351562 293.75 L 363.050781 206.371094 L 363.261719 177.964844 C 363.261719 170.289062 353.28125 167.359375 349.234375 173.847656 L 274.347656 293.75 L 191.851562 293.75 L 280.347656 152.074219 L 365.914062 152.074219 L 383.429688 163.03125 L 433.050781 194.019531 Z M 433.050781 193.949219 "/></g></svg>